<?xml version="1.0"?><svg width="578" height="331" xmlns="http://www.w3.org/2000/svg" xmlns:xlink="http://www.w3.org/1999/xlink">
 <defs>
  <linearGradient id="linearGradient11719">
   <stop stop-color="black" stop-opacity="0" id="stop11721" offset="0"/>
   <stop stop-color="black" stop-opacity="0" id="stop11723" offset="0.6"/>
   <stop stop-color="black" id="stop11725" offset="1"/>
  </linearGradient>
  <linearGradient id="linearGradient1400">
   <stop stop-color="#000000" stop-opacity="0.678431" offset="0" id="stop1401"/>
   <stop stop-color="#000000" stop-opacity="0.329412" offset="0.57" id="stop1403"/>
   <stop stop-color="#000000" stop-opacity="0" offset="1" id="stop1402"/>
  </linearGradient>
  <radialGradient r="6.25807" fy="714.67664" fx="478.37463" cy="714.67664" cx="478.37463" gradientTransform="matrix(0,-1.170605,-10.08023,0,7652.419,1290.45)" gradientUnits="userSpaceOnUse" id="radialGradient15143" xlink:href="#linearGradient11719"/>
  <radialGradient r="6.25807" fy="714.6571" fx="473.95905" cy="714.6571" cx="473.95905" gradientTransform="matrix(0,-1.170605,-11.41807,0,8608.428,1290.45)" gradientUnits="userSpaceOnUse" id="radialGradient15145" xlink:href="#linearGradient11719"/>
  <radialGradient r="13.284845" fy="732.91937" fx="476.25342" cy="732.91937" cx="476.25342" gradientTransform="matrix(0,-0.688667,-0.344332,0,718.6395,1060.712)" gradientUnits="userSpaceOnUse" id="radialGradient15147" xlink:href="#linearGradient11719"/>
  <radialGradient r="13.284845" fy="727.586" fx="475.53888" cy="727.586" cx="475.53888" gradientTransform="matrix(0,-0.688667,-0.344332,0,718.6395,1060.712)" gradientUnits="userSpaceOnUse" id="radialGradient15149" xlink:href="#linearGradient11719"/>
  <radialGradient r="2.609375" fy="736.38788" fx="432.7356" cy="736.38788" cx="432.7356" gradientTransform="matrix(4.918362,7.523395e-8,0,1.117007,-1688.553,-88.18083)" gradientUnits="userSpaceOnUse" id="radialGradient15151" xlink:href="#linearGradient1400"/>
  <radialGradient r="2.609375" fy="738.32343" fx="435.71893" cy="738.32343" cx="435.71893" gradientTransform="matrix(-6.04662e-7,4.918362,-1.426134,0,1486.957,-1400.654)" gradientUnits="userSpaceOnUse" id="radialGradient15153" xlink:href="#linearGradient1400"/>
  <radialGradient r="2.609375" fy="737.47778" fx="432.67838" cy="737.47778" cx="432.67838" gradientTransform="matrix(-6.04662e-7,4.918362,-1.426134,0,1486.957,-1400.654)" gradientUnits="userSpaceOnUse" id="radialGradient15155" xlink:href="#linearGradient1400"/>
  <radialGradient r="6.25807" fy="714.67664" fx="478.37463" cy="714.67664" cx="478.37463" gradientTransform="matrix(0,-1.170605,-10.08023,0,7652.419,1290.45)" gradientUnits="userSpaceOnUse" id="radialGradient15158" xlink:href="#linearGradient11719"/>
  <radialGradient r="6.25807" fy="714.6571" fx="473.95905" cy="714.6571" cx="473.95905" gradientTransform="matrix(0,-1.170605,-11.41807,0,8608.428,1290.45)" gradientUnits="userSpaceOnUse" id="radialGradient15161" xlink:href="#linearGradient11719"/>
  <radialGradient r="13.284845" fy="732.91937" fx="476.25342" cy="732.91937" cx="476.25342" gradientTransform="matrix(0,-0.688667,-0.344332,0,718.6395,1060.712)" gradientUnits="userSpaceOnUse" id="radialGradient15164" xlink:href="#linearGradient11719"/>
  <radialGradient r="13.284845" fy="727.586" fx="475.53888" cy="727.586" cx="475.53888" gradientTransform="matrix(0,-0.688667,-0.344332,0,718.6395,1060.712)" gradientUnits="userSpaceOnUse" id="radialGradient15167" xlink:href="#linearGradient11719"/>
  <radialGradient r="2.609375" fy="736.38788" fx="432.7356" cy="736.38788" cx="432.7356" gradientTransform="matrix(4.918362,7.523395e-8,0,1.117007,-1688.553,-88.18083)" gradientUnits="userSpaceOnUse" id="radialGradient15170" xlink:href="#linearGradient1400"/>
  <radialGradient r="2.609375" fy="738.32343" fx="435.71893" cy="738.32343" cx="435.71893" gradientTransform="matrix(-6.04662e-7,4.918362,-1.426134,0,1486.957,-1400.654)" gradientUnits="userSpaceOnUse" id="radialGradient15173" xlink:href="#linearGradient1400"/>
  <radialGradient r="2.609375" fy="737.47778" fx="432.67838" cy="737.47778" cx="432.67838" gradientTransform="matrix(-6.04662e-7,4.918362,-1.426134,0,1486.957,-1400.654)" gradientUnits="userSpaceOnUse" id="radialGradient15176" xlink:href="#linearGradient1400"/>
  <radialGradient r="13.28125" fy="734.47137" fx="478.58078" cy="734.47137" cx="478.58078" gradientTransform="matrix(1.951011,0,0,1.356552,-452.2355,-261.5708)" gradientUnits="userSpaceOnUse" id="radialGradient15179" xlink:href="#linearGradient11719"/>
  <radialGradient r="13.28125" fy="733.10718" fx="476.12036" cy="733.10718" cx="476.12036" gradientTransform="matrix(1.343249,2.070363e-2,-3.44962e-2,2.238111,-137.9318,-917.6904)" gradientUnits="userSpaceOnUse" id="radialGradient15181" xlink:href="#linearGradient11719"/>
  <radialGradient r="13.284845" fy="732.91937" fx="476.25342" cy="732.91937" cx="476.25342" gradientTransform="matrix(1.788161,0,0,0.894077,-374.8012,77.31069)" gradientUnits="userSpaceOnUse" id="radialGradient15183" xlink:href="#linearGradient11719"/>
  <radialGradient r="13.284845" fy="727.586" fx="475.53888" cy="727.586" cx="475.53888" gradientTransform="matrix(1.788161,0,0,0.894077,-374.8012,77.31069)" gradientUnits="userSpaceOnUse" id="radialGradient15185" xlink:href="#linearGradient11719"/>
  <radialGradient r="6.265625" fy="693.10944" fx="475.5466" cy="693.10944" cx="475.5466" gradientTransform="matrix(1.353019,0,0,0.668937,-167.8767,234.4245)" gradientUnits="userSpaceOnUse" id="radialGradient15187" xlink:href="#linearGradient1400"/>
  <radialGradient r="6.265625" fy="693.10944" fx="475.5466" cy="693.10944" cx="475.5466" gradientTransform="matrix(1.353019,0,0,0.668937,-167.8767,236.4245)" gradientUnits="userSpaceOnUse" id="radialGradient15189" xlink:href="#linearGradient1400"/>
  <radialGradient r="6.265625" fy="693.10944" fx="475.5466" cy="693.10944" cx="475.5466" gradientTransform="matrix(1.353019,0,0,0.668937,-167.8767,238.4245)" gradientUnits="userSpaceOnUse" id="radialGradient15191" xlink:href="#linearGradient1400"/>
  <radialGradient r="6.265625" fy="693.10944" fx="475.5466" cy="693.10944" cx="475.5466" gradientTransform="matrix(1.353019,0,0,0.668937,-167.8767,240.4245)" gradientUnits="userSpaceOnUse" id="radialGradient15193" xlink:href="#linearGradient1400"/>
  <radialGradient r="6.265625" fy="693.10944" fx="475.5466" cy="693.10944" cx="475.5466" gradientTransform="matrix(1.353019,0,0,0.668937,-167.8767,242.4245)" gradientUnits="userSpaceOnUse" id="radialGradient15195" xlink:href="#linearGradient1400"/>
  <radialGradient r="6.265625" fy="693.10944" fx="475.5466" cy="693.10944" cx="475.5466" gradientTransform="matrix(1.353019,0,0,0.668937,-167.8767,244.4245)" gradientUnits="userSpaceOnUse" id="radialGradient15197" xlink:href="#linearGradient1400"/>
  <radialGradient r="6.265625" fy="693.10944" fx="475.5466" cy="693.10944" cx="475.5466" gradientTransform="matrix(1.353019,0,0,0.668937,-167.8767,246.4245)" gradientUnits="userSpaceOnUse" id="radialGradient15199" xlink:href="#linearGradient1400"/>
  <radialGradient r="6.265625" fy="693.10944" fx="475.5466" cy="693.10944" cx="475.5466" gradientTransform="matrix(1.353019,0,0,0.668937,-167.8767,248.4245)" gradientUnits="userSpaceOnUse" id="radialGradient15201" xlink:href="#linearGradient1400"/>
  <radialGradient r="6.265625" fy="693.10944" fx="475.5466" cy="693.10944" cx="475.5466" gradientTransform="matrix(1.353019,0,0,0.668937,-167.8767,250.4245)" gradientUnits="userSpaceOnUse" id="radialGradient15203" xlink:href="#linearGradient1400"/>
  <radialGradient r="6.265625" fy="693.10944" fx="475.5466" cy="693.10944" cx="475.5466" gradientTransform="matrix(1.353019,0,0,0.668937,-167.8767,254.4245)" gradientUnits="userSpaceOnUse" id="radialGradient15205" xlink:href="#linearGradient1400"/>
  <radialGradient r="6.265625" fy="693.10944" fx="475.5466" cy="693.10944" cx="475.5466" gradientTransform="matrix(1.353019,0,0,0.668937,-167.8767,252.4245)" gradientUnits="userSpaceOnUse" id="radialGradient15207" xlink:href="#linearGradient1400"/>
  <radialGradient r="6.265625" fy="693.10944" fx="475.5466" cy="693.10944" cx="475.5466" gradientTransform="matrix(1.353019,0,0,0.668937,-167.8767,256.4245)" gradientUnits="userSpaceOnUse" id="radialGradient15209" xlink:href="#linearGradient1400"/>
  <radialGradient r="6.265625" fy="693.10944" fx="475.5466" cy="693.10944" cx="475.5466" gradientTransform="matrix(1.353019,0,0,0.668937,-167.8767,258.4245)" gradientUnits="userSpaceOnUse" id="radialGradient15211" xlink:href="#linearGradient1400"/>
  <radialGradient r="6.265625" fy="693.10944" fx="475.5466" cy="693.10944" cx="475.5466" gradientTransform="matrix(1.353019,0,0,0.668937,-167.8767,260.4245)" gradientUnits="userSpaceOnUse" id="radialGradient15213" xlink:href="#linearGradient1400"/>
  <radialGradient r="6.265625" fy="693.10944" fx="475.5466" cy="693.10944" cx="475.5466" gradientTransform="matrix(1.353019,0,0,0.668937,-167.8767,262.4245)" gradientUnits="userSpaceOnUse" id="radialGradient15215" xlink:href="#linearGradient1400"/>
  <radialGradient r="6.25807" fy="712.81067" fx="478.37463" cy="712.81067" cx="478.37463" gradientTransform="matrix(3.039537,0,0,14.56441,-971.3288,-9668.772)" gradientUnits="userSpaceOnUse" id="radialGradient15217" xlink:href="#linearGradient11719"/>
  <radialGradient r="6.25807" fy="712.81067" fx="473.95905" cy="712.81067" cx="473.95905" gradientTransform="matrix(3.039537,0,0,14.56441,-971.3288,-9668.772)" gradientUnits="userSpaceOnUse" id="radialGradient15219" xlink:href="#linearGradient11719"/>
  <radialGradient r="6.26357" fy="696.25562" fx="483.66016" cy="696.25562" cx="483.66016" gradientTransform="matrix(0,-1.754268,2.174228,0,-1038.28,1541.352)" gradientUnits="userSpaceOnUse" id="radialGradient15221" xlink:href="#linearGradient11719"/>
  <radialGradient r="13.28125" fy="733.28601" fx="475.53125" cy="733.28601" cx="475.53125" gradientTransform="matrix(1.951011,0,0,1.356552,-452.2355,-261.5708)" gradientUnits="userSpaceOnUse" id="radialGradient15223" xlink:href="#linearGradient11719"/>
  <radialGradient r="13.28125" fy="734.47137" fx="478.58078" cy="734.47137" cx="478.58078" gradientTransform="matrix(0.751385,0,0,0.522443,97.13385,343.2281)" gradientUnits="userSpaceOnUse" id="radialGradient15225" xlink:href="#linearGradient11719"/>
  <radialGradient r="13.28125" fy="733.10718" fx="476.12036" cy="733.10718" cx="476.12036" gradientTransform="matrix(0.51732,7.973506e-3,-1.328538e-2,0.861955,218.1804,90.53937)" gradientUnits="userSpaceOnUse" id="radialGradient15227" xlink:href="#linearGradient11719"/>
  <radialGradient r="13.284845" fy="732.91937" fx="476.25342" cy="732.91937" cx="476.25342" gradientTransform="matrix(0.688667,0,0,0.344332,126.9558,473.7402)" gradientUnits="userSpaceOnUse" id="radialGradient15229" xlink:href="#linearGradient11719"/>
  <radialGradient r="13.284845" fy="727.586" fx="475.53888" cy="727.586" cx="475.53888" gradientTransform="matrix(0.688667,0,0,0.344332,126.9558,473.7402)" gradientUnits="userSpaceOnUse" id="radialGradient15231" xlink:href="#linearGradient11719"/>
  <radialGradient r="6.265625" fy="693.10944" fx="475.5466" cy="693.10944" cx="475.5466" gradientTransform="matrix(0.521083,0,0,0.257625,206.6478,534.2488)" gradientUnits="userSpaceOnUse" id="radialGradient15233" xlink:href="#linearGradient1400"/>
  <radialGradient r="6.265625" fy="693.10944" fx="475.5466" cy="693.10944" cx="475.5466" gradientTransform="matrix(0.521083,0,0,0.257625,206.6478,535.019)" gradientUnits="userSpaceOnUse" id="radialGradient15235" xlink:href="#linearGradient1400"/>
  <radialGradient r="6.265625" fy="693.10944" fx="475.5466" cy="693.10944" cx="475.5466" gradientTransform="matrix(0.521083,0,0,0.257625,206.6478,535.7893)" gradientUnits="userSpaceOnUse" id="radialGradient15237" xlink:href="#linearGradient1400"/>
  <radialGradient r="6.265625" fy="693.10944" fx="475.5466" cy="693.10944" cx="475.5466" gradientTransform="matrix(0.521083,0,0,0.257625,206.6478,536.5595)" gradientUnits="userSpaceOnUse" id="radialGradient15239" xlink:href="#linearGradient1400"/>
  <radialGradient r="6.265625" fy="693.10944" fx="475.5466" cy="693.10944" cx="475.5466" gradientTransform="matrix(0.521083,0,0,0.257625,206.6478,537.3298)" gradientUnits="userSpaceOnUse" id="radialGradient15241" xlink:href="#linearGradient1400"/>
  <radialGradient r="6.265625" fy="693.10944" fx="475.5466" cy="693.10944" cx="475.5466" gradientTransform="matrix(0.521083,0,0,0.257625,206.6478,538.1)" gradientUnits="userSpaceOnUse" id="radialGradient15243" xlink:href="#linearGradient1400"/>
  <radialGradient r="6.265625" fy="693.10944" fx="475.5466" cy="693.10944" cx="475.5466" gradientTransform="matrix(0.521083,0,0,0.257625,206.6478,538.8703)" gradientUnits="userSpaceOnUse" id="radialGradient15245" xlink:href="#linearGradient1400"/>
  <radialGradient r="6.265625" fy="693.10944" fx="475.5466" cy="693.10944" cx="475.5466" gradientTransform="matrix(0.521083,0,0,0.257625,206.6478,539.6405)" gradientUnits="userSpaceOnUse" id="radialGradient15247" xlink:href="#linearGradient1400"/>
  <radialGradient r="6.265625" fy="693.10944" fx="475.5466" cy="693.10944" cx="475.5466" gradientTransform="matrix(0.521083,0,0,0.257625,206.6478,540.4108)" gradientUnits="userSpaceOnUse" id="radialGradient15249" xlink:href="#linearGradient1400"/>
  <radialGradient r="6.265625" fy="693.10944" fx="475.5466" cy="693.10944" cx="475.5466" gradientTransform="matrix(0.521083,0,0,0.257625,206.6478,541.9513)" gradientUnits="userSpaceOnUse" id="radialGradient15251" xlink:href="#linearGradient1400"/>
  <radialGradient r="6.265625" fy="693.10944" fx="475.5466" cy="693.10944" cx="475.5466" gradientTransform="matrix(0.521083,0,0,0.257625,206.6478,541.181)" gradientUnits="userSpaceOnUse" id="radialGradient15253" xlink:href="#linearGradient1400"/>
  <radialGradient r="6.265625" fy="693.10944" fx="475.5466" cy="693.10944" cx="475.5466" gradientTransform="matrix(0.521083,0,0,0.257625,206.6478,542.7215)" gradientUnits="userSpaceOnUse" id="radialGradient15255" xlink:href="#linearGradient1400"/>
  <radialGradient r="6.265625" fy="693.10944" fx="475.5466" cy="693.10944" cx="475.5466" gradientTransform="matrix(0.521083,0,0,0.257625,206.6478,543.4918)" gradientUnits="userSpaceOnUse" id="radialGradient15257" xlink:href="#linearGradient1400"/>
  <radialGradient r="6.265625" fy="693.10944" fx="475.5466" cy="693.10944" cx="475.5466" gradientTransform="matrix(0.521083,0,0,0.257625,206.6478,544.262)" gradientUnits="userSpaceOnUse" id="radialGradient15259" xlink:href="#linearGradient1400"/>
  <radialGradient r="6.265625" fy="693.10944" fx="475.5466" cy="693.10944" cx="475.5466" gradientTransform="matrix(0.521083,0,0,0.257625,206.6478,545.0323)" gradientUnits="userSpaceOnUse" id="radialGradient15261" xlink:href="#linearGradient1400"/>
  <radialGradient r="6.25807" fy="711.02332" fx="478.37463" cy="711.02332" cx="478.37463" gradientTransform="matrix(1.170605,0,0,7.162646,-102.7825,-4384.314)" gradientUnits="userSpaceOnUse" id="radialGradient15263" xlink:href="#linearGradient11719"/>
  <radialGradient r="13.28125" fy="733.28601" fx="475.53125" cy="733.28601" cx="475.53125" gradientTransform="matrix(0.751385,0,0,0.522443,97.13385,343.2281)" gradientUnits="userSpaceOnUse" id="radialGradient15265" xlink:href="#linearGradient11719"/>
  <radialGradient r="6.25807" fy="711.02795" fx="473.95905" cy="711.02795" cx="473.95905" gradientTransform="matrix(1.170605,0,0,8.641152,-102.7825,-5435.58)" gradientUnits="userSpaceOnUse" id="radialGradient15267" xlink:href="#linearGradient11719"/>
  <radialGradient r="6.265625" fy="693.10944" fx="475.5466" cy="693.10944" cx="475.5466" gradientTransform="matrix(0.521083,0,0,0.257625,206.6478,514.2488)" gradientUnits="userSpaceOnUse" id="radialGradient15269" xlink:href="#linearGradient1400"/>
  <radialGradient r="6.265625" fy="693.10944" fx="475.5466" cy="693.10944" cx="475.5466" gradientTransform="matrix(0.521083,0,0,0.257625,206.6478,515.019)" gradientUnits="userSpaceOnUse" id="radialGradient15271" xlink:href="#linearGradient1400"/>
  <radialGradient r="6.265625" fy="693.10944" fx="475.5466" cy="693.10944" cx="475.5466" gradientTransform="matrix(0.521083,0,0,0.257625,206.6478,515.7893)" gradientUnits="userSpaceOnUse" id="radialGradient15273" xlink:href="#linearGradient1400"/>
  <radialGradient r="6.265625" fy="693.10944" fx="475.5466" cy="693.10944" cx="475.5466" gradientTransform="matrix(0.521083,0,0,0.257625,206.6478,516.5595)" gradientUnits="userSpaceOnUse" id="radialGradient15275" xlink:href="#linearGradient1400"/>
  <radialGradient r="6.265625" fy="693.10944" fx="475.5466" cy="693.10944" cx="475.5466" gradientTransform="matrix(0.521083,0,0,0.257625,206.6478,517.3298)" gradientUnits="userSpaceOnUse" id="radialGradient15277" xlink:href="#linearGradient1400"/>
  <radialGradient r="6.265625" fy="693.10944" fx="475.5466" cy="693.10944" cx="475.5466" gradientTransform="matrix(0.521083,0,0,0.257625,206.6478,518.1)" gradientUnits="userSpaceOnUse" id="radialGradient15279" xlink:href="#linearGradient1400"/>
  <radialGradient r="6.265625" fy="693.10944" fx="475.5466" cy="693.10944" cx="475.5466" gradientTransform="matrix(0.521083,0,0,0.257625,206.6478,518.8703)" gradientUnits="userSpaceOnUse" id="radialGradient15281" xlink:href="#linearGradient1400"/>
  <radialGradient r="6.265625" fy="693.10944" fx="475.5466" cy="693.10944" cx="475.5466" gradientTransform="matrix(0.521083,0,0,0.257625,206.6478,519.6405)" gradientUnits="userSpaceOnUse" id="radialGradient15283" xlink:href="#linearGradient1400"/>
  <radialGradient r="6.265625" fy="693.10944" fx="475.5466" cy="693.10944" cx="475.5466" gradientTransform="matrix(0.521083,0,0,0.257625,206.6478,520.4108)" gradientUnits="userSpaceOnUse" id="radialGradient15285" xlink:href="#linearGradient1400"/>
  <radialGradient r="6.265625" fy="693.10944" fx="475.5466" cy="693.10944" cx="475.5466" gradientTransform="matrix(0.521083,0,0,0.257625,206.6478,521.9513)" gradientUnits="userSpaceOnUse" id="radialGradient15287" xlink:href="#linearGradient1400"/>
  <radialGradient r="6.265625" fy="693.10944" fx="475.5466" cy="693.10944" cx="475.5466" gradientTransform="matrix(0.521083,0,0,0.257625,206.6478,521.181)" gradientUnits="userSpaceOnUse" id="radialGradient15289" xlink:href="#linearGradient1400"/>
  <radialGradient r="6.265625" fy="693.10944" fx="475.5466" cy="693.10944" cx="475.5466" gradientTransform="matrix(0.521083,0,0,0.257625,206.6478,522.7215)" gradientUnits="userSpaceOnUse" id="radialGradient15291" xlink:href="#linearGradient1400"/>
  <radialGradient r="6.265625" fy="693.10944" fx="475.5466" cy="693.10944" cx="475.5466" gradientTransform="matrix(0.521083,0,0,0.257625,206.6478,523.4918)" gradientUnits="userSpaceOnUse" id="radialGradient15293" xlink:href="#linearGradient1400"/>
  <radialGradient r="6.265625" fy="693.10944" fx="475.5466" cy="693.10944" cx="475.5466" gradientTransform="matrix(0.521083,0,0,0.257625,206.6478,524.262)" gradientUnits="userSpaceOnUse" id="radialGradient15295" xlink:href="#linearGradient1400"/>
  <radialGradient r="6.265625" fy="693.10944" fx="475.5466" cy="693.10944" cx="475.5466" gradientTransform="matrix(0.521083,0,0,0.257625,206.6478,525.0323)" gradientUnits="userSpaceOnUse" id="radialGradient15298" xlink:href="#linearGradient1400"/>
  <radialGradient r="6.265625" fy="693.10944" fx="475.5466" cy="693.10944" cx="475.5466" gradientTransform="matrix(0.521083,0,0,0.257625,206.6478,525.8726)" gradientUnits="userSpaceOnUse" id="radialGradient15301" xlink:href="#linearGradient1400"/>
  <radialGradient r="6.265625" fy="693.10944" fx="475.5466" cy="693.10944" cx="475.5466" gradientTransform="matrix(0.521083,0,0,0.257625,206.6478,526.6429)" gradientUnits="userSpaceOnUse" id="radialGradient15304" xlink:href="#linearGradient1400"/>
  <radialGradient r="6.265625" fy="693.10944" fx="475.5466" cy="693.10944" cx="475.5466" gradientTransform="matrix(0.521083,0,0,0.257625,206.6478,527.4131)" gradientUnits="userSpaceOnUse" id="radialGradient15306" xlink:href="#linearGradient1400"/>
  <radialGradient r="6.265625" fy="693.10944" fx="475.5466" cy="693.10944" cx="475.5466" gradientTransform="matrix(0.521083,0,0,0.257625,206.6478,528.1834)" gradientUnits="userSpaceOnUse" id="radialGradient15308" xlink:href="#linearGradient1400"/>
  <radialGradient r="6.265625" fy="693.10944" fx="475.5466" cy="693.10944" cx="475.5466" gradientTransform="matrix(0.521083,0,0,0.257625,206.6478,529.7239)" gradientUnits="userSpaceOnUse" id="radialGradient15310" xlink:href="#linearGradient1400"/>
  <radialGradient r="6.265625" fy="693.10944" fx="475.5466" cy="693.10944" cx="475.5466" gradientTransform="matrix(0.521083,0,0,0.257625,206.6478,528.9536)" gradientUnits="userSpaceOnUse" id="radialGradient15313" xlink:href="#linearGradient1400"/>
  <radialGradient r="6.265625" fy="693.10944" fx="475.5466" cy="693.10944" cx="475.5466" gradientTransform="matrix(0.521083,0,0,0.257625,206.6478,530.4941)" gradientUnits="userSpaceOnUse" id="radialGradient15316" xlink:href="#linearGradient1400"/>
  <radialGradient r="6.265625" fy="693.10944" fx="475.5466" cy="693.10944" cx="475.5466" gradientTransform="matrix(0.521083,0,0,0.257625,206.6478,531.2644)" gradientUnits="userSpaceOnUse" id="radialGradient15319" xlink:href="#linearGradient1400"/>
  <radialGradient r="6.265625" fy="693.10944" fx="475.5466" cy="693.10944" cx="475.5466" gradientTransform="matrix(0.521083,0,0,0.257625,206.6478,532.0346)" gradientUnits="userSpaceOnUse" id="radialGradient15322" xlink:href="#linearGradient1400"/>
  <radialGradient r="6.265625" fy="693.10944" fx="475.5466" cy="693.10944" cx="475.5466" gradientTransform="matrix(0.521083,0,0,0.257625,206.6478,532.8049)" gradientUnits="userSpaceOnUse" id="radialGradient15324" xlink:href="#linearGradient1400"/>
  <radialGradient r="6.265625" fy="693.10944" fx="475.5466" cy="693.10944" cx="475.5466" gradientTransform="matrix(0.521083,0,0,0.257625,206.6478,533.5155)" gradientUnits="userSpaceOnUse" id="radialGradient15326" xlink:href="#linearGradient1400"/>
  <radialGradient r="6.26357" fy="696.25562" fx="483.66016" cy="696.25562" cx="483.66016" gradientTransform="matrix(0,-0.675614,0.837352,0,-128.5671,1017.581)" gradientUnits="userSpaceOnUse" id="radialGradient15328" xlink:href="#linearGradient11719"/>
 </defs>
 <metadata id="metadata7">image/svg+xml</metadata>
 <g>
  <title>Layer 1</title>
  <g id="layer1">
   <g id="g4084" transform="matrix(-0.134786 -0.603324 0.712838 0 115.932 861.165)"/>
   <g id="g8602" transform="matrix(-0.134786 -0.603324 0.712838 0 -474.532 -459.553)"/>
   <g transform="matrix(-2.68981 -10.0385 10.0385 -2.68981 -5550.99 6695.84)" id="g6982">
    <path fill="#000000" stroke-width="8" stroke-linecap="round" stroke-linejoin="round" stroke-miterlimit="4" id="path6614" d="m459.155212,690.269714c-0.220215,0 -0.41217,0.015381 -0.570526,0.031677c-0.660889,0.067078 -1.246613,0.238098 -1.743317,0.538818c-0.496674,0.300781 -0.982605,0.82019 -0.982574,1.521423l0,29.635742c-1.161011,0.407043 -2.157715,0.996826 -2.567444,1.996887c-0.078552,0.28125 -0.126556,0.56958 -0.190155,0.855835l0,3.898621c0,1.191772 0.953278,2.01001 2.028564,2.630859c1.227905,0.697205 2.649048,0.751099 4.025452,0.855774c1.451874,0 2.77359,-0.274414 3.835266,-0.760742c1.061707,-0.486267 1.940033,-1.220459 2.155365,-2.282104c0.027588,-0.135986 0.063385,-0.266052 0.063385,-0.443787l0,-3.898621c0,-0.809814 -0.470764,-1.499451 -1.077667,-1.996887c-0.437378,-0.358521 -1.051239,-0.569824 -1.648224,-0.792419l-0.031708,-29.699158c0,-0.594116 -0.363678,-1.062378 -0.760712,-1.362915c-0.397003,-0.300537 -0.858917,-0.489441 -1.394623,-0.602234c-0.355713,-0.075317 -0.748108,-0.12677 -1.141083,-0.12677z"/>
    <path opacity="0.8" fill="#969696" stroke-width="8" stroke-linecap="round" stroke-linejoin="round" stroke-miterlimit="4" id="path6618" d="m455.702179,730.436523l0,-1.564575l2.082062,0.55365l0,0.096252l-2.082062,0.914673z"/>
    <path opacity="0.8" fill="url(#radialGradient15225)" stroke-width="8" stroke-linecap="round" stroke-linejoin="round" stroke-miterlimit="4" d="m455.702179,730.436523l0,-1.564575l2.082062,0.55365l0,0.096252l-2.082062,0.914673z" id="path6620"/>
    <path fill="#d3d3d3" stroke-width="8" stroke-linecap="round" stroke-linejoin="round" stroke-miterlimit="4" id="path6622" d="m459.30069,722.204468c-2.824829,0 -5.11496,1.139038 -5.11496,2.551453l0,3.851257c0,0.711975 0.577362,1.361084 1.516449,1.829346l0,-1.564575l2.082062,0.55365l0,1.63678c0.480499,0.075745 0.986786,0.120361 1.516449,0.1203c2.824799,0 5.11496,-1.163086 5.11496,-2.5755l0,-3.851257c0,-1.412415 -2.290161,-2.551453 -5.11496,-2.551453z"/>
    <path opacity="0.8" fill="url(#radialGradient15227)" stroke-width="8" stroke-linecap="round" stroke-linejoin="round" stroke-miterlimit="4" id="path6624" d="m459.30069,722.204468c-2.824829,0 -5.11496,1.139038 -5.11496,2.551453l0,3.851257c0,0.711975 0.577362,1.361084 1.516449,1.829346l0,-1.564575l2.082062,0.55365l0,1.63678c0.480499,0.075745 0.986786,0.120361 1.516449,0.1203c2.824799,0 5.11496,-1.163086 5.11496,-2.5755l0,-3.851257c0,-1.412415 -2.290161,-2.551453 -5.11496,-2.551453z"/>
    <path fill="#c7c7c7" stroke-width="8" stroke-linecap="round" stroke-linejoin="round" stroke-miterlimit="4" id="path6626" d="m459.30365,722.209839c2.824799,0 5.116333,1.138916 5.116333,2.551331c0,1.412415 -2.291534,2.565002 -5.116333,2.565002c-2.824829,0 -5.116364,-1.152588 -5.116364,-2.565002c0,-1.412415 2.291534,-2.551331 5.116364,-2.551331z"/>
    <path opacity="0.5" fill="url(#radialGradient15229)" stroke-width="8" stroke-linecap="round" stroke-linejoin="round" stroke-miterlimit="4" id="path6628" d="m459.30365,722.209839c2.824799,0 5.116333,1.138916 5.116333,2.551331c0,1.412415 -2.291534,2.565002 -5.116333,2.565002c-2.824829,0 -5.116364,-1.152588 -5.116364,-2.565002c0,-1.412415 2.291534,-2.551331 5.116364,-2.551331z"/>
    <path opacity="0.5" fill="url(#radialGradient15231)" stroke-width="8" stroke-linecap="round" stroke-linejoin="round" stroke-miterlimit="4" d="m459.30365,722.209839c2.824799,0 5.116333,1.138916 5.116333,2.551331c0,1.412415 -2.291534,2.565002 -5.116333,2.565002c-2.824829,0 -5.116364,-1.152588 -5.116364,-2.565002c0,-1.412415 2.291534,-2.551331 5.116364,-2.551331z" id="path6630"/>
    <path fill="#b3b3b3" stroke-width="8" stroke-linecap="round" stroke-linejoin="round" stroke-miterlimit="4" id="path6632" d="m459.301361,691.24054c-1.331848,0 -2.405396,0.541504 -2.405396,1.207458l0,31.561096c0,0.665894 1.073547,1.207458 2.405396,1.207458c1.331848,0 2.414886,-0.541565 2.414886,-1.207458l0,-31.561096c0,-0.665955 -1.083069,-1.207458 -2.414886,-1.207458z"/>
    <path fill="url(#radialGradient15233)" stroke-width="8" stroke-linecap="round" stroke-linejoin="round" stroke-miterlimit="4" id="path6634" d="m461.719757,712.937378c-0.416779,0.42041 -1.340607,0.722107 -2.419067,0.722107c-1.068604,0 -1.985046,-0.295898 -2.407043,-0.710083l0,0.770264c0.423401,0.414368 1.339539,0.710083 2.407043,0.710083c1.077057,0 2.000885,-0.301819 2.419067,-0.722107l0,-0.770264z"/>
    <path fill="url(#radialGradient15235)" stroke-width="8" stroke-linecap="round" stroke-linejoin="round" stroke-miterlimit="4" d="m461.719757,713.707642c-0.416779,0.42041 -1.340607,0.722107 -2.419067,0.722107c-1.068604,0 -1.985046,-0.295898 -2.407043,-0.710083l0,0.770264c0.423401,0.414368 1.339539,0.710083 2.407043,0.710083c1.077057,0 2.000885,-0.301819 2.419067,-0.722168l0,-0.770203z" id="path6636"/>
    <path fill="url(#radialGradient15237)" stroke-width="8" stroke-linecap="round" stroke-linejoin="round" stroke-miterlimit="4" id="path6638" d="m461.719757,714.477844c-0.416779,0.420471 -1.340607,0.722168 -2.419067,0.722168c-1.068604,0 -1.985046,-0.295898 -2.407043,-0.710083l0,0.770203c0.423401,0.414429 1.339539,0.710083 2.407043,0.710083c1.077057,0 2.000885,-0.301758 2.419067,-0.722107l0,-0.770264z"/>
    <path fill="url(#radialGradient15239)" stroke-width="8" stroke-linecap="round" stroke-linejoin="round" stroke-miterlimit="4" d="m461.719757,715.248108c-0.416779,0.420471 -1.340607,0.722107 -2.419067,0.722107c-1.068604,0 -1.985046,-0.295837 -2.407043,-0.710083l0,0.770264c0.423401,0.414368 1.339539,0.710083 2.407043,0.710083c1.077057,0 2.000885,-0.301819 2.419067,-0.722107l0,-0.770264z" id="path6640"/>
    <path fill="url(#radialGradient15241)" stroke-width="8" stroke-linecap="round" stroke-linejoin="round" stroke-miterlimit="4" id="path6642" d="m461.719757,716.018372c-0.416779,0.42041 -1.340607,0.722107 -2.419067,0.722107c-1.068604,0 -1.985046,-0.295837 -2.407043,-0.710083l0,0.770264c0.423401,0.414368 1.339539,0.710083 2.407043,0.710083c1.077057,0 2.000885,-0.301819 2.419067,-0.722107l0,-0.770264z"/>
    <path fill="url(#radialGradient15243)" stroke-width="8" stroke-linecap="round" stroke-linejoin="round" stroke-miterlimit="4" d="m461.719757,716.788635c-0.416779,0.42041 -1.340607,0.722107 -2.419067,0.722107c-1.068604,0 -1.985046,-0.295898 -2.407043,-0.710083l0,0.770264c0.423401,0.414368 1.339539,0.710083 2.407043,0.710083c1.077057,0 2.000885,-0.301819 2.419067,-0.722107l0,-0.770264z" id="path6644"/>
    <path fill="url(#radialGradient15245)" stroke-width="8" stroke-linecap="round" stroke-linejoin="round" stroke-miterlimit="4" id="path6646" d="m461.719757,717.558899c-0.416779,0.42041 -1.340607,0.722107 -2.419067,0.722107c-1.068604,0 -1.985046,-0.295898 -2.407043,-0.710083l0,0.770264c0.423401,0.414368 1.339539,0.710083 2.407043,0.710083c1.077057,0 2.000885,-0.301819 2.419067,-0.722168l0,-0.770203z"/>
    <path fill="url(#radialGradient15247)" stroke-width="8" stroke-linecap="round" stroke-linejoin="round" stroke-miterlimit="4" d="m461.719757,718.329102c-0.416779,0.420471 -1.340607,0.722168 -2.419067,0.722168c-1.068604,0 -1.985046,-0.295898 -2.407043,-0.710083l0,0.770203c0.423401,0.414429 1.339539,0.710144 2.407043,0.710083c1.077057,0 2.000885,-0.301758 2.419067,-0.722107l0,-0.770264z" id="path6648"/>
    <path fill="url(#radialGradient15249)" stroke-width="8" stroke-linecap="round" stroke-linejoin="round" stroke-miterlimit="4" id="path6650" d="m461.719757,719.099365c-0.416779,0.420471 -1.340607,0.722107 -2.419067,0.722107c-1.068604,0.000061 -1.985046,-0.295837 -2.407043,-0.710083l0,0.770264c0.423401,0.414429 1.339539,0.710083 2.407043,0.710083c1.077057,0 2.000885,-0.301819 2.419067,-0.722107l0,-0.770264z"/>
    <path fill="url(#radialGradient15251)" stroke-width="8" stroke-linecap="round" stroke-linejoin="round" stroke-miterlimit="4" d="m461.719757,720.639893c-0.416779,0.42041 -1.340607,0.722107 -2.419067,0.722107c-1.068604,0 -1.985046,-0.295837 -2.407043,-0.710083l0,0.770264c0.423401,0.414368 1.339539,0.710083 2.407043,0.710083c1.077057,0 2.000885,-0.301819 2.419067,-0.722107l0,-0.770264z" id="path6652"/>
    <path fill="url(#radialGradient15253)" stroke-width="8" stroke-linecap="round" stroke-linejoin="round" stroke-miterlimit="4" id="path6654" d="m461.719757,719.869629c-0.416779,0.42041 -1.340607,0.722107 -2.419067,0.722107c-1.068604,0 -1.985046,-0.295837 -2.407043,-0.710083l0,0.770264c0.423401,0.414368 1.339539,0.710083 2.407043,0.710083c1.077057,0 2.000885,-0.301819 2.419067,-0.722107l0,-0.770264z"/>
    <path fill="url(#radialGradient15255)" stroke-width="8" stroke-linecap="round" stroke-linejoin="round" stroke-miterlimit="4" id="path6656" d="m461.719757,721.410156c-0.416779,0.42041 -1.340607,0.722107 -2.419067,0.722107c-1.068604,0 -1.985046,-0.295898 -2.407043,-0.710083l0,0.770264c0.423401,0.414368 1.339539,0.710083 2.407043,0.710083c1.077057,0 2.000885,-0.301819 2.419067,-0.722168l0,-0.770203z"/>
    <path fill="url(#radialGradient15257)" stroke-width="8" stroke-linecap="round" stroke-linejoin="round" stroke-miterlimit="4" d="m461.719757,722.180359c-0.416779,0.420471 -1.340607,0.722168 -2.419067,0.722168c-1.068604,0 -1.985046,-0.295898 -2.407043,-0.710083l0,0.770203c0.423401,0.414429 1.339539,0.710144 2.407043,0.710083c1.077057,0 2.000885,-0.301758 2.419067,-0.722107l0,-0.770264z" id="path6658"/>
    <path fill="url(#radialGradient15259)" stroke-width="8" stroke-linecap="round" stroke-linejoin="round" stroke-miterlimit="4" id="path6660" d="m461.719757,722.950623c-0.416779,0.420471 -1.340607,0.722107 -2.419067,0.722107c-1.068604,0.000061 -1.985046,-0.295837 -2.407043,-0.710083l0,0.770264c0.423401,0.414429 1.339539,0.710083 2.407043,0.710083c1.077057,0 2.000885,-0.301819 2.419067,-0.722107l0,-0.770264z"/>
    <path fill="url(#radialGradient15261)" stroke-width="8" stroke-linecap="round" stroke-linejoin="round" stroke-miterlimit="4" d="m461.719757,723.720886c-0.416779,0.42041 -1.340607,0.722107 -2.419067,0.722107c-1.068604,0 -1.985046,-0.295837 -2.407043,-0.710083l0,0.770264c0.423401,0.414368 1.339539,0.710083 2.407043,0.710083c1.077057,0 2.000885,-0.301819 2.419067,-0.722107l0,-0.770264z" id="path6662"/>
    <path fill="url(#radialGradient15263)" stroke-width="8" stroke-linecap="round" stroke-linejoin="round" stroke-miterlimit="4" d="m459.301361,691.24054c-1.331848,0 -2.405396,0.541504 -2.405396,1.207458l0,31.561096c0,0.665894 1.073547,1.207458 2.405396,1.207458c1.331848,0 2.414886,-0.541565 2.414886,-1.207458l0,-31.561096c0,-0.665955 -1.083069,-1.207458 -2.414886,-1.207458z" id="path6664"/>
    <path opacity="0.8" fill="url(#radialGradient15265)" stroke-width="8" stroke-linecap="round" stroke-linejoin="round" stroke-miterlimit="4" id="path6672" d="m459.30069,722.204468c-2.824829,0 -5.11496,1.139038 -5.11496,2.551453l0,3.851257c0,0.711975 0.577362,1.361084 1.516449,1.829346l0,-1.564575l2.082062,0.55365l0,1.63678c0.480499,0.075745 0.986786,0.120361 1.516449,0.1203c2.824799,0 5.11496,-1.163086 5.11496,-2.5755l0,-3.851257c0,-1.412415 -2.290161,-2.551453 -5.11496,-2.551453z"/>
    <path fill="url(#radialGradient15267)" stroke-width="8" stroke-linecap="round" stroke-linejoin="round" stroke-miterlimit="4" id="path6666" d="m459.301361,691.24054c-1.331848,0 -2.405396,0.541504 -2.405396,1.207458l0,31.561096c0,0.665894 1.073547,1.207458 2.405396,1.207458c1.331848,0 2.414886,-0.541565 2.414886,-1.207458l0,-31.561096c0,-0.665955 -1.083069,-1.207458 -2.414886,-1.207458z"/>
    <path fill="url(#radialGradient15269)" stroke-width="8" stroke-linecap="round" stroke-linejoin="round" stroke-miterlimit="4" d="m461.719757,692.937378c-0.416779,0.42041 -1.340607,0.722107 -2.419067,0.722107c-1.068604,0 -1.985046,-0.295898 -2.407043,-0.710083l0,0.770264c0.423401,0.414368 1.339539,0.710083 2.407043,0.710083c1.077057,0 2.000885,-0.301819 2.419067,-0.722107l0,-0.770264z" id="path6878"/>
    <path fill="url(#radialGradient15271)" stroke-width="8" stroke-linecap="round" stroke-linejoin="round" stroke-miterlimit="4" id="path6880" d="m461.719757,693.707642c-0.416779,0.42041 -1.340607,0.722107 -2.419067,0.722107c-1.068604,0 -1.985046,-0.295898 -2.407043,-0.710083l0,0.770264c0.423401,0.414368 1.339539,0.710083 2.407043,0.710083c1.077057,0 2.000885,-0.301819 2.419067,-0.722168l0,-0.770203z"/>
    <path fill="url(#radialGradient15273)" stroke-width="8" stroke-linecap="round" stroke-linejoin="round" stroke-miterlimit="4" d="m461.719757,694.477844c-0.416779,0.420471 -1.340607,0.722168 -2.419067,0.722168c-1.068604,0 -1.985046,-0.295898 -2.407043,-0.710083l0,0.770203c0.423401,0.414429 1.339539,0.710083 2.407043,0.710083c1.077057,0 2.000885,-0.301758 2.419067,-0.722107l0,-0.770264z" id="path6882"/>
    <path fill="url(#radialGradient15275)" stroke-width="8" stroke-linecap="round" stroke-linejoin="round" stroke-miterlimit="4" id="path6884" d="m461.719757,695.248108c-0.416779,0.420471 -1.340607,0.722107 -2.419067,0.722107c-1.068604,0 -1.985046,-0.295837 -2.407043,-0.710083l0,0.770264c0.423401,0.414368 1.339539,0.710083 2.407043,0.710083c1.077057,0 2.000885,-0.301819 2.419067,-0.722107l0,-0.770264z"/>
    <path fill="url(#radialGradient15277)" stroke-width="8" stroke-linecap="round" stroke-linejoin="round" stroke-miterlimit="4" d="m461.719757,696.018372c-0.416779,0.42041 -1.340607,0.722107 -2.419067,0.722107c-1.068604,0 -1.985046,-0.295837 -2.407043,-0.710083l0,0.770264c0.423401,0.414368 1.339539,0.710083 2.407043,0.710083c1.077057,0 2.000885,-0.301819 2.419067,-0.722107l0,-0.770264z" id="path6886"/>
    <path fill="url(#radialGradient15279)" stroke-width="8" stroke-linecap="round" stroke-linejoin="round" stroke-miterlimit="4" id="path6888" d="m461.719757,696.788635c-0.416779,0.42041 -1.340607,0.722107 -2.419067,0.722107c-1.068604,0 -1.985046,-0.295898 -2.407043,-0.710083l0,0.770264c0.423401,0.414368 1.339539,0.710083 2.407043,0.710083c1.077057,0 2.000885,-0.301819 2.419067,-0.722107l0,-0.770264z"/>
    <path fill="url(#radialGradient15281)" stroke-width="8" stroke-linecap="round" stroke-linejoin="round" stroke-miterlimit="4" d="m461.719757,697.558899c-0.416779,0.42041 -1.340607,0.722107 -2.419067,0.722107c-1.068604,0 -1.985046,-0.295898 -2.407043,-0.710083l0,0.770264c0.423401,0.414368 1.339539,0.710083 2.407043,0.710083c1.077057,0 2.000885,-0.301819 2.419067,-0.722168l0,-0.770203z" id="path6890"/>
    <path fill="url(#radialGradient15283)" stroke-width="8" stroke-linecap="round" stroke-linejoin="round" stroke-miterlimit="4" id="path6892" d="m461.719757,698.329102c-0.416779,0.420471 -1.340607,0.722168 -2.419067,0.722168c-1.068604,0 -1.985046,-0.295898 -2.407043,-0.710083l0,0.770203c0.423401,0.414429 1.339539,0.710144 2.407043,0.710083c1.077057,0 2.000885,-0.301758 2.419067,-0.722107l0,-0.770264z"/>
    <path fill="url(#radialGradient15285)" stroke-width="8" stroke-linecap="round" stroke-linejoin="round" stroke-miterlimit="4" d="m461.719757,699.099365c-0.416779,0.420471 -1.340607,0.722107 -2.419067,0.722107c-1.068604,0.000061 -1.985046,-0.295837 -2.407043,-0.710083l0,0.770264c0.423401,0.414429 1.339539,0.710083 2.407043,0.710083c1.077057,0 2.000885,-0.301819 2.419067,-0.722107l0,-0.770264z" id="path6894"/>
    <path fill="url(#radialGradient15287)" stroke-width="8" stroke-linecap="round" stroke-linejoin="round" stroke-miterlimit="4" id="path6896" d="m461.719757,700.639893c-0.416779,0.42041 -1.340607,0.722107 -2.419067,0.722107c-1.068604,0 -1.985046,-0.295837 -2.407043,-0.710083l0,0.770264c0.423401,0.414368 1.339539,0.710083 2.407043,0.710083c1.077057,0 2.000885,-0.301819 2.419067,-0.722107l0,-0.770264z"/>
    <path fill="url(#radialGradient15289)" stroke-width="8" stroke-linecap="round" stroke-linejoin="round" stroke-miterlimit="4" d="m461.719757,699.869629c-0.416779,0.42041 -1.340607,0.722107 -2.419067,0.722107c-1.068604,0 -1.985046,-0.295837 -2.407043,-0.710083l0,0.770264c0.423401,0.414368 1.339539,0.710083 2.407043,0.710083c1.077057,0 2.000885,-0.301819 2.419067,-0.722107l0,-0.770264z" id="path6898"/>
    <path fill="url(#radialGradient15291)" stroke-width="8" stroke-linecap="round" stroke-linejoin="round" stroke-miterlimit="4" d="m461.719757,701.410156c-0.416779,0.42041 -1.340607,0.722107 -2.419067,0.722107c-1.068604,0 -1.985046,-0.295898 -2.407043,-0.710083l0,0.770264c0.423401,0.414368 1.339539,0.710083 2.407043,0.710083c1.077057,0 2.000885,-0.301819 2.419067,-0.722168l0,-0.770203z" id="path6900"/>
    <path fill="url(#radialGradient15293)" stroke-width="8" stroke-linecap="round" stroke-linejoin="round" stroke-miterlimit="4" id="path6902" d="m461.719757,702.180359c-0.416779,0.420471 -1.340607,0.722168 -2.419067,0.722168c-1.068604,0 -1.985046,-0.295898 -2.407043,-0.710083l0,0.770203c0.423401,0.414429 1.339539,0.710144 2.407043,0.710083c1.077057,0 2.000885,-0.301758 2.419067,-0.722107l0,-0.770264z"/>
    <path fill="url(#radialGradient15295)" stroke-width="8" stroke-linecap="round" stroke-linejoin="round" stroke-miterlimit="4" d="m461.719757,702.950623c-0.416779,0.420471 -1.340607,0.722107 -2.419067,0.722107c-1.068604,0.000061 -1.985046,-0.295837 -2.407043,-0.710083l0,0.770264c0.423401,0.414429 1.339539,0.710083 2.407043,0.710083c1.077057,0 2.000885,-0.301819 2.419067,-0.722107l0,-0.770264z" id="path6904"/>
    <path fill="url(#radialGradient15298)" stroke-width="8" stroke-linecap="round" stroke-linejoin="round" stroke-miterlimit="4" id="path6906" d="m461.719757,703.720886c-0.416779,0.42041 -1.340607,0.722107 -2.419067,0.722107c-1.068604,0 -1.985046,-0.295837 -2.407043,-0.710083l0,0.770264c0.423401,0.414368 1.339539,0.710083 2.407043,0.710083c1.077057,0 2.000885,-0.301819 2.419067,-0.722107l0,-0.770264z"/>
    <path fill="url(#radialGradient15301)" stroke-width="8" stroke-linecap="round" stroke-linejoin="round" stroke-miterlimit="4" d="m461.719757,704.561218c-0.416779,0.42041 -1.340607,0.722107 -2.419067,0.722107c-1.068604,0 -1.985046,-0.295837 -2.407043,-0.710083l0,0.770264c0.423401,0.414368 1.339539,0.710083 2.407043,0.710083c1.077057,0 2.000885,-0.301819 2.419067,-0.722107l0,-0.770264z" id="path6938"/>
    <path fill="url(#radialGradient15304)" stroke-width="8" stroke-linecap="round" stroke-linejoin="round" stroke-miterlimit="4" id="path6940" d="m461.719757,705.331482c-0.416779,0.42041 -1.340607,0.722107 -2.419067,0.722107c-1.068604,0 -1.985046,-0.295898 -2.407043,-0.710083l0,0.770264c0.423401,0.414368 1.339539,0.710083 2.407043,0.710083c1.077057,0 2.000885,-0.301819 2.419067,-0.722168l0,-0.770203z"/>
    <path fill="url(#radialGradient15306)" stroke-width="8" stroke-linecap="round" stroke-linejoin="round" stroke-miterlimit="4" d="m461.719757,706.101685c-0.416779,0.420471 -1.340607,0.722168 -2.419067,0.722168c-1.068604,0 -1.985046,-0.295898 -2.407043,-0.710083l0,0.770264c0.423401,0.414368 1.339539,0.710083 2.407043,0.710022c1.077057,0 2.000885,-0.301758 2.419067,-0.722107l0,-0.770264z" id="path6942"/>
    <path fill="url(#radialGradient15308)" stroke-width="8" stroke-linecap="round" stroke-linejoin="round" stroke-miterlimit="4" id="path6944" d="m461.719757,706.871948c-0.416779,0.420471 -1.340607,0.722107 -2.419067,0.722107c-1.068604,0.000061 -1.985046,-0.295837 -2.407043,-0.710022l0,0.770203c0.423401,0.414429 1.339539,0.710083 2.407043,0.710083c1.077057,0 2.000885,-0.301758 2.419067,-0.722107l0,-0.770264z"/>
    <path fill="url(#radialGradient15310)" stroke-width="8" stroke-linecap="round" stroke-linejoin="round" stroke-miterlimit="4" d="m461.719757,708.412476c-0.416779,0.42041 -1.340607,0.722107 -2.419067,0.722107c-1.068604,0 -1.985046,-0.295837 -2.407043,-0.710083l0,0.770264c0.423401,0.414368 1.339539,0.710083 2.407043,0.710083c1.077057,0 2.000885,-0.301819 2.419067,-0.722107l0,-0.770264z" id="path6946"/>
    <path fill="url(#radialGradient15313)" stroke-width="8" stroke-linecap="round" stroke-linejoin="round" stroke-miterlimit="4" id="path6948" d="m461.719757,707.642212c-0.416779,0.420471 -1.340607,0.722107 -2.419067,0.722107c-1.068604,0 -1.985046,-0.295837 -2.407043,-0.710083l0,0.770264c0.423401,0.414368 1.339539,0.710083 2.407043,0.710083c1.077057,0 2.000885,-0.301819 2.419067,-0.722107l0,-0.770264z"/>
    <path fill="url(#radialGradient15316)" stroke-width="8" stroke-linecap="round" stroke-linejoin="round" stroke-miterlimit="4" id="path6950" d="m461.719757,709.182739c-0.416779,0.42041 -1.340607,0.722107 -2.419067,0.722107c-1.068604,0 -1.985046,-0.295898 -2.407043,-0.710083l0,0.770264c0.423401,0.414368 1.339539,0.710083 2.407043,0.710083c1.077057,0 2.000885,-0.301819 2.419067,-0.722107l0,-0.770264z"/>
    <path fill="url(#radialGradient15319)" stroke-width="8" stroke-linecap="round" stroke-linejoin="round" stroke-miterlimit="4" d="m461.719757,709.953003c-0.416779,0.42041 -1.340607,0.722107 -2.419067,0.722107c-1.068604,0 -1.985046,-0.295898 -2.407043,-0.710083l0,0.770264c0.423401,0.414368 1.339539,0.710083 2.407043,0.710083c1.077057,0 2.000885,-0.301819 2.419067,-0.722168l0,-0.770203z" id="path6952"/>
    <path fill="url(#radialGradient15322)" stroke-width="8" stroke-linecap="round" stroke-linejoin="round" stroke-miterlimit="4" id="path6954" d="m461.719757,710.723206c-0.416779,0.420471 -1.340607,0.722168 -2.419067,0.722168c-1.068604,0 -1.985046,-0.295898 -2.407043,-0.710083l0,0.770203c0.423401,0.414429 1.339539,0.710083 2.407043,0.710083c1.077057,0 2.000885,-0.301758 2.419067,-0.722107l0,-0.770264z"/>
    <path fill="url(#radialGradient15324)" stroke-width="8" stroke-linecap="round" stroke-linejoin="round" stroke-miterlimit="4" d="m461.719757,711.493469c-0.416779,0.420471 -1.340607,0.722107 -2.419067,0.722107c-1.068604,0 -1.985046,-0.295837 -2.407043,-0.710083l0,0.770264c0.423401,0.414368 1.339539,0.710083 2.407043,0.710083c1.077057,0 2.000885,-0.301819 2.419067,-0.722107l0,-0.770264z" id="path6956"/>
    <path fill="url(#radialGradient15326)" stroke-width="8" stroke-linecap="round" stroke-linejoin="round" stroke-miterlimit="4" id="path6978" d="m461.719757,712.204163c-0.416779,0.42041 -1.340607,0.722107 -2.419067,0.722107c-1.068604,0 -1.985046,-0.295898 -2.407043,-0.710083l0,0.770264c0.423401,0.414368 1.339539,0.710083 2.407043,0.710022c1.077057,0 2.000885,-0.301758 2.419067,-0.722107l0,-0.770203z"/>
    <path fill="#c7c7c7" stroke-width="8" stroke-linecap="round" stroke-linejoin="round" stroke-miterlimit="4" id="path6668" d="m459.30368,691.241882c1.331848,0 2.412262,0.536987 2.412262,1.202942c0,0.665894 -1.080414,1.20929 -2.412262,1.20929c-1.331848,0.000061 -2.412262,-0.543396 -2.412262,-1.20929c0,-0.665955 1.080414,-1.202942 2.412262,-1.202942z"/>
    <path opacity="0.5" fill="url(#radialGradient15328)" stroke-width="8" stroke-linecap="round" stroke-linejoin="round" stroke-miterlimit="4" d="m459.30368,691.241882c1.331848,0 2.412262,0.536987 2.412262,1.202942c0,0.665894 -1.080414,1.20929 -2.412262,1.20929c-1.331848,0.000061 -2.412262,-0.543396 -2.412262,-1.20929c0,-0.665955 1.080414,-1.202942 2.412262,-1.202942z" id="path6670"/>
   </g>
   <g transform="matrix(10.3926 0 0 10.3926 -4534.61 -7280.87)" id="g6579">
    <path fill="#000000" stroke-width="8" stroke-linecap="round" stroke-linejoin="round" stroke-miterlimit="4" d="m473.849365,705.079895c-0.220184,0 -0.41217,0.015381 -0.570526,0.031677c-0.660858,0.067017 -1.246613,0.238098 -1.743286,0.538818c-0.496704,0.300781 -0.982605,0.820129 -0.982605,1.521423l0,0.507141l0,0.792419l0,1.553162l0,0.792419l0,1.553101l0,0.792419l0,1.553101l0,0.792419l0,0.760742l0,0.538818c-1.16098,0.407043 -2.157684,0.996765 -2.567413,1.996887c-0.078583,0.281189 -0.126587,0.56958 -0.190186,0.855774l0,3.898682c0,1.191772 0.953308,2.01001 2.028595,2.630798c1.227905,0.697266 2.649048,0.75116 4.025421,0.855835c1.451874,0 2.77359,-0.274414 3.835297,-0.760742c1.061676,-0.486328 1.940033,-1.220459 2.155334,-2.282104c0.027588,-0.136047 0.063416,-0.266052 0.063416,-0.443787l0,-3.898682c0,-0.809753 -0.470795,-1.49939 -1.077698,-1.996826c-0.437378,-0.358521 -1.051239,-0.569824 -1.648193,-0.792419l0,-0.602234l0,-0.792419l0,-0.760742l0,-0.792419l0,-0.792419l0,-0.760681l0,-0.792419l0,-0.792419l0,-0.760681l0,-0.792419l0,-0.792419l0,-0.760742c-0.005493,-0.053711 -0.016113,-0.10675 -0.031708,-0.158447c0.001801,-0.031677 0.001801,-0.063416 0,-0.095093l0,-0.253601c0,-0.594116 -0.363708,-1.062378 -0.760712,-1.362915c-0.397003,-0.300537 -0.858917,-0.489441 -1.394653,-0.602234c-0.355713,-0.075317 -0.748108,-0.12677 -1.141083,-0.12677z" id="path5703"/>
    <g id="g5448" transform="matrix(0.385126 0 0 0.385126 292.395 443.103)">
     <path opacity="0.8" fill="#969696" stroke-width="8" stroke-linecap="round" stroke-linejoin="round" stroke-miterlimit="4" id="path5446" d="m462.189972,732.601135l0,-4.0625l5.40625,1.4375l0,0.25l-5.40625,2.375z"/>
     <path opacity="0.8" fill="url(#radialGradient15179)" stroke-width="8" stroke-linecap="round" stroke-linejoin="round" stroke-miterlimit="4" d="m462.189972,732.601135l0,-4.0625l5.40625,1.4375l0,0.25l-5.40625,2.375z" id="path5442"/>
     <path fill="#d3d3d3" stroke-width="8" stroke-linecap="round" stroke-linejoin="round" stroke-miterlimit="4" id="path5281" d="m471.533722,711.226135c-7.334778,0 -13.28125,2.957581 -13.28125,6.625l0,10c0,1.848755 1.499146,3.53418 3.9375,4.75l0,-4.0625l5.40625,1.4375l0,4.25c1.24762,0.196716 2.562225,0.3125 3.9375,0.3125c7.334778,0 13.28125,-3.020142 13.28125,-6.6875l0,-10c0,-3.667358 -5.946472,-6.625 -13.28125,-6.625z"/>
     <path opacity="0.8" fill="url(#radialGradient15181)" stroke-width="8" stroke-linecap="round" stroke-linejoin="round" stroke-miterlimit="4" id="path5425" d="m471.533722,711.226135c-7.334778,0 -13.28125,2.957581 -13.28125,6.625l0,10c0,1.848755 1.499146,3.53418 3.9375,4.75l0,-4.0625l5.40625,1.4375l0,4.25c1.24762,0.196716 2.562225,0.3125 3.9375,0.3125c7.334778,0 13.28125,-3.020142 13.28125,-6.6875l0,-10c0,-3.667358 -5.946472,-6.625 -13.28125,-6.625z"/>
     <path fill="#c7c7c7" stroke-width="8" stroke-linecap="round" stroke-linejoin="round" stroke-miterlimit="4" id="path5187" d="m471.541382,711.240112c7.334778,0 13.284821,2.957336 13.284821,6.624695c0.000061,3.667358 -5.950043,6.660095 -13.284821,6.660095c-7.334778,0.000061 -13.284851,-2.992737 -13.284851,-6.660095c0,-3.667419 5.950073,-6.624695 13.284851,-6.624695z"/>
     <path opacity="0.5" fill="url(#radialGradient15183)" stroke-width="8" stroke-linecap="round" stroke-linejoin="round" stroke-miterlimit="4" id="path5417" d="m471.541382,711.240112c7.334778,0 13.284821,2.957336 13.284821,6.624695c0.000061,3.667358 -5.950043,6.660095 -13.284821,6.660095c-7.334778,0.000061 -13.284851,-2.992737 -13.284851,-6.660095c0,-3.667419 5.950073,-6.624695 13.284851,-6.624695z"/>
     <path opacity="0.5" fill="url(#radialGradient15185)" stroke-width="8" stroke-linecap="round" stroke-linejoin="round" stroke-miterlimit="4" d="m471.541382,711.240112c7.334778,0 13.284821,2.957336 13.284821,6.624695c0.000061,3.667358 -5.950043,6.660095 -13.284821,6.660095c-7.334778,0.000061 -13.284851,-2.992737 -13.284851,-6.660095c0,-3.667419 5.950073,-6.624695 13.284851,-6.624695z" id="path5413"/>
     <path fill="#b3b3b3" stroke-width="8" stroke-linecap="round" stroke-linejoin="round" stroke-miterlimit="4" id="path5293" d="m471.535431,682.757751c-3.458221,0 -6.245728,1.406067 -6.245728,3.135193l0,30.018982c0,1.729126 2.787506,3.135254 6.245728,3.135193c3.458221,0 6.270416,-1.406128 6.270416,-3.135193l0,-30.018982c0,-1.729126 -2.812195,-3.135254 -6.270416,-3.135193z"/>
     <path fill="url(#radialGradient15187)" stroke-width="8" stroke-linecap="round" stroke-linejoin="round" stroke-miterlimit="4" id="path5310" d="m477.814972,687.163635c-1.082184,1.091675 -3.480988,1.875 -6.28125,1.875c-2.774658,0.000061 -5.154297,-0.76825 -6.25,-1.84375l0,2c1.099396,1.075989 3.478149,1.843811 6.25,1.84375c2.796661,0 5.195435,-0.78363 6.28125,-1.875l0,-2z"/>
     <path fill="url(#radialGradient15189)" stroke-width="8" stroke-linecap="round" stroke-linejoin="round" stroke-miterlimit="4" d="m477.814972,689.163635c-1.082184,1.091675 -3.480988,1.875 -6.28125,1.875c-2.774658,0.000061 -5.154297,-0.76825 -6.25,-1.84375l0,2c1.099396,1.075989 3.478149,1.843811 6.25,1.84375c2.796661,0 5.195435,-0.78363 6.28125,-1.875l0,-2z" id="path5335"/>
     <path fill="url(#radialGradient15191)" stroke-width="8" stroke-linecap="round" stroke-linejoin="round" stroke-miterlimit="4" id="path5339" d="m477.814972,691.163635c-1.082184,1.091675 -3.480988,1.875 -6.28125,1.875c-2.774658,0.000061 -5.154297,-0.76825 -6.25,-1.84375l0,2c1.099396,1.075989 3.478149,1.843811 6.25,1.84375c2.796661,0 5.195435,-0.78363 6.28125,-1.875l0,-2z"/>
     <path fill="url(#radialGradient15193)" stroke-width="8" stroke-linecap="round" stroke-linejoin="round" stroke-miterlimit="4" d="m477.814972,693.163635c-1.082184,1.091675 -3.480988,1.875 -6.28125,1.875c-2.774658,0.000061 -5.154297,-0.76825 -6.25,-1.84375l0,2c1.099396,1.075989 3.478149,1.843811 6.25,1.84375c2.796661,0 5.195435,-0.78363 6.28125,-1.875l0,-2z" id="path5343"/>
     <path fill="url(#radialGradient15195)" stroke-width="8" stroke-linecap="round" stroke-linejoin="round" stroke-miterlimit="4" id="path5347" d="m477.814972,695.163635c-1.082184,1.091675 -3.480988,1.875 -6.28125,1.875c-2.774658,0.000061 -5.154297,-0.76825 -6.25,-1.84375l0,2c1.099396,1.075989 3.478149,1.843811 6.25,1.84375c2.796661,0 5.195435,-0.78363 6.28125,-1.875l0,-2z"/>
     <path fill="url(#radialGradient15197)" stroke-width="8" stroke-linecap="round" stroke-linejoin="round" stroke-miterlimit="4" d="m477.814972,697.163635c-1.082184,1.091675 -3.480988,1.875 -6.28125,1.875c-2.774658,0.000061 -5.154297,-0.76825 -6.25,-1.84375l0,2c1.099396,1.075989 3.478149,1.843811 6.25,1.84375c2.796661,0 5.195435,-0.78363 6.28125,-1.875l0,-2z" id="path5351"/>
     <path fill="url(#radialGradient15199)" stroke-width="8" stroke-linecap="round" stroke-linejoin="round" stroke-miterlimit="4" id="path5355" d="m477.814972,699.163635c-1.082184,1.091675 -3.480988,1.875 -6.28125,1.875c-2.774658,0.000061 -5.154297,-0.76825 -6.25,-1.84375l0,2c1.099396,1.075989 3.478149,1.843811 6.25,1.84375c2.796661,0 5.195435,-0.78363 6.28125,-1.875l0,-2z"/>
     <path fill="url(#radialGradient15201)" stroke-width="8" stroke-linecap="round" stroke-linejoin="round" stroke-miterlimit="4" d="m477.814972,701.163635c-1.082184,1.091675 -3.480988,1.875 -6.28125,1.875c-2.774658,0.000061 -5.154297,-0.76825 -6.25,-1.84375l0,2c1.099396,1.075989 3.478149,1.843811 6.25,1.84375c2.796661,0 5.195435,-0.78363 6.28125,-1.875l0,-2z" id="path5359"/>
     <path fill="url(#radialGradient15203)" stroke-width="8" stroke-linecap="round" stroke-linejoin="round" stroke-miterlimit="4" id="path5363" d="m477.814972,703.163635c-1.082184,1.091675 -3.480988,1.875 -6.28125,1.875c-2.774658,0.000061 -5.154297,-0.76825 -6.25,-1.84375l0,2c1.099396,1.075989 3.478149,1.843811 6.25,1.84375c2.796661,0 5.195435,-0.78363 6.28125,-1.875l0,-2z"/>
     <path fill="url(#radialGradient15205)" stroke-width="8" stroke-linecap="round" stroke-linejoin="round" stroke-miterlimit="4" d="m477.814972,707.163635c-1.082184,1.091675 -3.480988,1.875 -6.28125,1.875c-2.774658,0.000061 -5.154297,-0.76825 -6.25,-1.84375l0,2c1.099396,1.075989 3.478149,1.843811 6.25,1.84375c2.796661,0 5.195435,-0.78363 6.28125,-1.875l0,-2z" id="path5367"/>
     <path fill="url(#radialGradient15207)" stroke-width="8" stroke-linecap="round" stroke-linejoin="round" stroke-miterlimit="4" id="path5369" d="m477.814972,705.163635c-1.082184,1.091675 -3.480988,1.875 -6.28125,1.875c-2.774658,0.000061 -5.154297,-0.76825 -6.25,-1.84375l0,2c1.099396,1.075989 3.478149,1.843811 6.25,1.84375c2.796661,0 5.195435,-0.78363 6.28125,-1.875l0,-2z"/>
     <path fill="url(#radialGradient15209)" stroke-width="8" stroke-linecap="round" stroke-linejoin="round" stroke-miterlimit="4" id="path5375" d="m477.814972,709.163635c-1.082184,1.091675 -3.480988,1.875 -6.28125,1.875c-2.774658,0.000061 -5.154297,-0.76825 -6.25,-1.84375l0,2c1.099396,1.075989 3.478149,1.843811 6.25,1.84375c2.796661,0 5.195435,-0.78363 6.28125,-1.875l0,-2z"/>
     <path fill="url(#radialGradient15211)" stroke-width="8" stroke-linecap="round" stroke-linejoin="round" stroke-miterlimit="4" d="m477.814972,711.163635c-1.082184,1.091675 -3.480988,1.875 -6.28125,1.875c-2.774658,0.000061 -5.154297,-0.76825 -6.25,-1.84375l0,2c1.099396,1.075989 3.478149,1.843811 6.25,1.84375c2.796661,0 5.195435,-0.78363 6.28125,-1.875l0,-2z" id="path5379"/>
     <path fill="url(#radialGradient15213)" stroke-width="8" stroke-linecap="round" stroke-linejoin="round" stroke-miterlimit="4" id="path5383" d="m477.814972,713.163635c-1.082184,1.091675 -3.480988,1.875 -6.28125,1.875c-2.774658,0.000061 -5.154297,-0.76825 -6.25,-1.84375l0,2c1.099396,1.075989 3.478149,1.843811 6.25,1.84375c2.796661,0 5.195435,-0.78363 6.28125,-1.875l0,-2z"/>
     <path fill="url(#radialGradient15215)" stroke-width="8" stroke-linecap="round" stroke-linejoin="round" stroke-miterlimit="4" d="m477.814972,715.163635c-1.082184,1.091675 -3.480988,1.875 -6.28125,1.875c-2.774658,0.000061 -5.154297,-0.76825 -6.25,-1.84375l0,2c1.099396,1.075989 3.478149,1.843811 6.25,1.84375c2.796661,0 5.195435,-0.78363 6.28125,-1.875l0,-2z" id="path5387"/>
     <path fill="url(#radialGradient15217)" stroke-width="8" stroke-linecap="round" stroke-linejoin="round" stroke-miterlimit="4" d="m471.535431,682.757751c-3.458221,0 -6.245728,1.406067 -6.245728,3.135193l0,30.018982c0,1.729126 2.787506,3.135254 6.245728,3.135193c3.458221,0 6.270416,-1.406128 6.270416,-3.135193l0,-30.018982c0,-1.729126 -2.812195,-3.135254 -6.270416,-3.135193z" id="path5393"/>
     <path fill="url(#radialGradient15219)" stroke-width="8" stroke-linecap="round" stroke-linejoin="round" stroke-miterlimit="4" id="path5397" d="m471.535431,682.757751c-3.458221,0 -6.245728,1.406067 -6.245728,3.135193l0,30.018982c0,1.729126 2.787506,3.135254 6.245728,3.135193c3.458221,0 6.270416,-1.406128 6.270416,-3.135193l0,-30.018982c0,-1.729126 -2.812195,-3.135254 -6.270416,-3.135193z"/>
     <path fill="#c7c7c7" stroke-width="8" stroke-linecap="round" stroke-linejoin="round" stroke-miterlimit="4" id="path5291" d="m471.541473,682.761292c3.458221,-0.000061 6.26358,1.394287 6.26358,3.123352c0.000031,1.729126 -2.805359,3.140137 -6.26358,3.140137c-3.458221,0.000061 -6.26358,-1.411011 -6.26358,-3.140137c0,-1.729065 2.805359,-3.123352 6.26358,-3.123352z"/>
     <path opacity="0.5" fill="url(#radialGradient15221)" stroke-width="8" stroke-linecap="round" stroke-linejoin="round" stroke-miterlimit="4" d="m471.541473,682.761292c3.458221,-0.000061 6.26358,1.394287 6.26358,3.123352c0.000031,1.729126 -2.805359,3.140137 -6.26358,3.140137c-3.458221,0.000061 -6.26358,-1.411011 -6.26358,-3.140137c0,-1.729065 2.805359,-3.123352 6.26358,-3.123352z" id="path5401"/>
     <path opacity="0.8" fill="url(#radialGradient15223)" stroke-width="8" stroke-linecap="round" stroke-linejoin="round" stroke-miterlimit="4" id="path5421" d="m471.533722,711.226135c-7.334778,0 -13.28125,2.957581 -13.28125,6.625l0,10c0,1.848755 1.499146,3.53418 3.9375,4.75l0,-4.0625l5.40625,1.4375l0,4.25c1.24762,0.196716 2.562225,0.3125 3.9375,0.3125c7.334778,0 13.28125,-3.020142 13.28125,-6.6875l0,-10c0,-3.667358 -5.946472,-6.625 -13.28125,-6.625z"/>
    </g>
   </g>
   <g transform="matrix(-7.02082 1.88122 1.88122 7.02082 1949.26 -5809.28)" id="g8480">
    <path fill="#000000" stroke-width="8" stroke-linecap="round" stroke-linejoin="round" stroke-miterlimit="4" d="m467.71051,720.019958c-0.420685,0 -0.747772,0.14447 -0.942291,0.226685c-0.249451,0.105164 -0.507416,0.23877 -0.753845,0.453308c-0.221558,0.18866 -0.433319,0.447693 -0.628204,0.712341c-0.051178,0.069458 -0.108154,0.118652 -0.157043,0.194275c-0.406128,0.440063 -0.734528,0.855347 -1.03656,1.230408l-30.97049,0c-0.161987,-0.002686 -0.322662,0.030457 -0.471161,0.097168l-5.245514,2.493225c-0.394623,0.188782 -0.649597,0.59375 -0.656311,1.042114c-0.006683,0.448425 0.236115,0.861267 0.624878,1.0625l0.062836,0.03241c0.010254,0.010986 0.020721,0.02179 0.031403,0.032349l5.182709,2.460876c0.148499,0.066711 0.309174,0.099792 0.471161,0.097107l30.876282,0c0.19101,0.304688 0.36969,0.627075 0.722412,1.133301c0.452972,0.650085 1.225342,1.378662 2.292969,1.586609l0,0.032349c0.020782,0.003967 0.041748,-0.00354 0.062805,0c0.025421,0.004272 0.037079,0.028748 0.062836,0.03241l0,-0.03241c0.010468,0.000122 0.020935,0.000122 0.031403,0c0.020599,0.011475 0.041565,0.022278 0.062836,0.03241c-0.0354,-0.004028 0.105591,0.032349 0.376892,0.032349c0.082825,0 0.119293,-0.024292 0.188477,-0.032349c-0.009033,-0.000793 0.064209,0.008301 0.282684,-0.03241c0.02063,-0.003479 0.007996,0.004944 0.031433,0c0.010468,0.000122 0.020905,0.000122 0.031403,0c-0.006714,0.001587 0.154724,-0.003357 0.439728,-0.129517c1.029144,-0.434875 1.640961,-1.367493 2.07309,-2.460815c0.432098,-1.093323 0.659607,-2.403625 0.659607,-3.820801c0,-1.224365 -0.173309,-2.372742 -0.502563,-3.367432c-0.10968,-0.334351 -0.238892,-0.62207 -0.376923,-0.906616c-0.430298,-0.890503 -1.000153,-1.682617 -1.916016,-2.039917c-0.267609,-0.113281 -0.324402,-0.107788 -0.188477,-0.064758c-0.010468,-0.000183 -0.020935,-0.000183 -0.031403,0c-0.041626,-0.012024 -0.027618,0.007385 -0.062805,0c-0.017609,-0.003723 -0.015381,0.002686 -0.031433,0c-0.035828,-0.011963 -0.019073,-0.022095 -0.062805,-0.03241c-0.010498,-0.000122 -0.020935,-0.000122 -0.031403,0c-0.236511,-0.049622 -0.305084,-0.033142 -0.314117,-0.032349c-0.009033,0.000732 0.032806,-0.04071 0.251282,0c-0.100616,-0.021179 -0.233551,-0.03241 -0.439758,-0.03241z" id="path8477"/>
    <g id="g8397">
     <path fill="#c7c7c7" stroke-width="8" stroke-linecap="round" stroke-linejoin="round" stroke-miterlimit="4" id="path7203" d="m433.417084,723.863953l-5.21875,2.40625l5.21875,2.40625l31.5625,0c0.665924,0 1.21875,-1.074402 1.21875,-2.40625c0,-1.331848 -0.552826,-2.40625 -1.21875,-2.40625l-31.5625,0z"/>
     <path fill="url(#radialGradient15158)" stroke-width="8" stroke-linecap="round" stroke-linejoin="round" stroke-miterlimit="4" id="path7235" d="m433.417084,723.863953l-5.21875,2.40625l5.21875,2.40625l31.5625,0c0.166473,0 0.323273,-0.065979 0.46875,-0.1875c0.149536,-0.125793 0.263336,-0.30304 0.375,-0.53125c0.055359,-0.108765 0.112152,-0.215759 0.15625,-0.34375c0.13031,-0.383789 0.21875,-0.844299 0.21875,-1.34375c0,-0.177368 -0.013031,-0.333435 -0.03125,-0.5c-0.016418,-0.15686 -0.031372,-0.293518 -0.0625,-0.4375c-0.183533,-0.866455 -0.625549,-1.46875 -1.125,-1.46875l-31.5625,0z"/>
     <path fill="url(#radialGradient15161)" stroke-width="8" stroke-linecap="round" stroke-linejoin="round" stroke-miterlimit="4" id="path7237" d="m433.417084,723.863953l-5.21875,2.40625l5.21875,2.40625l31.5625,0c0.166473,0 0.323273,-0.065979 0.46875,-0.1875c0.149536,-0.125793 0.263336,-0.30304 0.375,-0.53125c0.055359,-0.108765 0.112152,-0.215759 0.15625,-0.34375c0.13031,-0.383789 0.21875,-0.844299 0.21875,-1.34375c0,-0.177368 -0.013031,-0.333435 -0.03125,-0.5c-0.016418,-0.15686 -0.031372,-0.293518 -0.0625,-0.4375c-0.183533,-0.866455 -0.625549,-1.46875 -1.125,-1.46875l-31.5625,0z"/>
     <path fill="#c7c7c7" stroke-width="8" stroke-linecap="round" stroke-linejoin="round" stroke-miterlimit="4" d="m466.184235,726.275024c0,-1.331848 -0.536987,-2.412292 -1.202911,-2.412292c-0.665924,0 -1.209351,1.080444 -1.209351,2.412292c0,1.331848 0.543427,2.412231 1.209351,2.412231c0.665924,0 1.202911,-1.080383 1.202911,-2.412231z" id="path7239"/>
     <path fill="#c7c7c7" stroke-width="8" stroke-linecap="round" stroke-linejoin="round" stroke-miterlimit="4" id="path8352" d="m467.729584,721.145203c-1.342285,0.438477 -2.242462,1.87738 -3.101013,2.82135c-0.498474,0.298584 -0.867737,1.215149 -0.867737,2.30365c0,1.102478 0.474609,1.902405 0.887054,2.31488c0.84082,0.84082 1.218903,2.81012 3.081696,2.81012c1.412415,0 2.562531,-2.300171 2.5625,-5.125c0,-2.824829 -1.150116,-5.125061 -2.5625,-5.125z"/>
     <path fill="#c7c7c7" stroke-width="8" stroke-linecap="round" stroke-linejoin="round" stroke-miterlimit="4" d="m465.178925,726.275024c-0.000031,-2.824768 1.138916,-5.116272 2.551331,-5.116272c1.412384,-0.000061 2.564972,2.291504 2.564972,5.116272c0.000031,2.824829 -1.152588,5.116394 -2.564972,5.116394c-1.412415,0 -2.551331,-2.291565 -2.551331,-5.116394z" id="path7197"/>
     <path opacity="0.5" fill="url(#radialGradient15164)" stroke-width="8" stroke-linecap="round" stroke-linejoin="round" stroke-miterlimit="4" d="m470.295227,726.275024c0.000031,-2.824768 -1.138947,-5.116272 -2.551331,-5.116272c-1.412384,-0.000061 -2.564972,2.291504 -2.564972,5.116272c-0.000031,2.824829 1.152588,5.116394 2.564972,5.116394c1.412415,0 2.551331,-2.291565 2.551331,-5.116394z" id="path7199"/>
     <path opacity="0.5" fill="url(#radialGradient15167)" stroke-width="8" stroke-linecap="round" stroke-linejoin="round" stroke-miterlimit="4" id="path7201" d="m470.295227,726.275024c0.000031,-2.824768 -1.138947,-5.116272 -2.551331,-5.116272c-1.412384,-0.000061 -2.564972,2.291504 -2.564972,5.116272c-0.000031,2.824829 1.152588,5.116394 2.564972,5.116394c1.412415,0 2.551331,-2.291565 2.551331,-5.116394z"/>
     <path fill="url(#radialGradient15170)" fill-rule="nonzero" stroke-width="0.1" stroke-linecap="round" stroke-linejoin="round" marker-start="none" marker-mid="none" marker-end="none" stroke-miterlimit="4" stroke-dashoffset="0" id="rect8377" d="m433.417084,723.863953l-5.21875,2.40625l0.0625,0.03125l4.673859,-0.502502l0.482391,-1.934998z"/>
     <path fill="url(#radialGradient15173)" fill-rule="nonzero" stroke-width="0.1" stroke-linecap="round" stroke-linejoin="round" marker-start="none" marker-mid="none" marker-end="none" stroke-miterlimit="4" stroke-dashoffset="0" d="m433.417084,723.863953l-5.21875,2.40625l0.0625,0.03125l4.673859,-0.502502l0.482391,-1.934998z" id="path8384"/>
     <path fill="url(#radialGradient15176)" fill-rule="nonzero" stroke-width="0.1" stroke-linecap="round" stroke-linejoin="round" marker-start="none" marker-mid="none" marker-end="none" stroke-miterlimit="4" stroke-dashoffset="0" id="path8388" d="m432.948334,725.801453l-4.6875,0.5l5.15625,2.375l-0.46875,-2.875z"/>
    </g>
   </g>
   <g id="g8509" transform="matrix(1.88122 7.02082 7.02082 -1.88122 -5750.82 -1555.17)">
    <path fill="#000000" stroke-width="8" stroke-linecap="round" stroke-linejoin="round" stroke-miterlimit="4" id="path8511" d="m460.344849,726.551392c-0.420685,0 -0.747772,0.14447 -0.942291,0.226685c-0.249451,0.105164 -0.507416,0.23877 -0.753845,0.453308c-0.221558,0.18866 -0.433319,0.447693 -0.628204,0.712341c-0.051178,0.069458 -0.108154,0.118652 -0.157043,0.194275c-0.406128,0.440063 -0.734528,0.855347 -1.03656,1.230408l-30.97049,0c-0.161987,-0.002686 -0.322662,0.030457 -0.471161,0.097168l-5.245514,2.493225c-0.394623,0.188782 -0.649597,0.59375 -0.656311,1.042114c-0.006683,0.448425 0.236115,0.861267 0.624878,1.0625l0.062836,0.03241c0.010254,0.010986 0.020721,0.02179 0.031403,0.032349l5.182709,2.460876c0.148499,0.066711 0.309174,0.099792 0.471161,0.097107l30.876282,0c0.19101,0.304688 0.36969,0.627075 0.722412,1.133301c0.452972,0.650085 1.225342,1.378662 2.292969,1.586609l0,0.032349c0.020782,0.003967 0.041748,-0.00354 0.062805,0c0.025421,0.004272 0.037079,0.028748 0.062836,0.03241l0,-0.03241c0.010468,0.000122 0.020935,0.000122 0.031403,0c0.020599,0.011475 0.041565,0.022278 0.062836,0.03241c-0.0354,-0.004028 0.105591,0.032349 0.376892,0.032349c0.082825,0 0.119293,-0.024292 0.188477,-0.032349c-0.009033,-0.000793 0.064209,0.008301 0.282684,-0.03241c0.02063,-0.003479 0.007996,0.004944 0.031433,0c0.010468,0.000122 0.020905,0.000122 0.031403,0c-0.006714,0.001587 0.154724,-0.003357 0.439728,-0.129517c1.029144,-0.434875 1.640961,-1.367493 2.07309,-2.460815c0.432098,-1.093323 0.659607,-2.403625 0.659607,-3.820801c0,-1.224365 -0.173309,-2.372742 -0.502563,-3.367432c-0.10968,-0.334351 -0.238892,-0.62207 -0.376923,-0.906616c-0.430298,-0.890503 -1.000153,-1.682617 -1.916016,-2.039917c-0.267609,-0.113281 -0.324402,-0.107788 -0.188477,-0.064758c-0.010468,-0.000183 -0.020935,-0.000183 -0.031403,0c-0.041626,-0.012024 -0.027618,0.007385 -0.062805,0c-0.017609,-0.003723 -0.015381,0.002686 -0.031433,0c-0.035828,-0.011963 -0.019073,-0.022095 -0.062805,-0.03241c-0.010498,-0.000122 -0.020935,-0.000122 -0.031403,0c-0.236511,-0.049622 -0.305084,-0.033142 -0.314117,-0.032349c-0.009033,0.000732 0.032806,-0.04071 0.251282,0c-0.100616,-0.021179 -0.233551,-0.03241 -0.439758,-0.03241z"/>
    <g id="g8513">
     <path fill="#c7c7c7" stroke-width="8" stroke-linecap="round" stroke-linejoin="round" stroke-miterlimit="4" d="m426.051422,730.395386l-5.21875,2.40625l5.21875,2.40625l31.5625,0c0.665924,0 1.21875,-1.074402 1.21875,-2.40625c0,-1.331848 -0.552826,-2.40625 -1.21875,-2.40625l-31.5625,0z" id="path8515"/>
     <path fill="url(#radialGradient15143)" stroke-width="8" stroke-linecap="round" stroke-linejoin="round" stroke-miterlimit="4" d="m426.051422,730.395386l-5.21875,2.40625l5.21875,2.40625l31.5625,0c0.166473,0 0.323273,-0.065979 0.46875,-0.1875c0.149536,-0.125793 0.263336,-0.30304 0.375,-0.53125c0.055359,-0.108765 0.112152,-0.215759 0.15625,-0.34375c0.13031,-0.383789 0.21875,-0.844299 0.21875,-1.34375c0,-0.177368 -0.013031,-0.333435 -0.03125,-0.5c-0.016418,-0.15686 -0.031372,-0.293518 -0.0625,-0.4375c-0.183533,-0.866455 -0.625549,-1.46875 -1.125,-1.46875l-31.5625,0z" id="path8517"/>
     <path fill="url(#radialGradient15145)" stroke-width="8" stroke-linecap="round" stroke-linejoin="round" stroke-miterlimit="4" d="m426.051422,730.395386l-5.21875,2.40625l5.21875,2.40625l31.5625,0c0.166473,0 0.323273,-0.065979 0.46875,-0.1875c0.149536,-0.125793 0.263336,-0.30304 0.375,-0.53125c0.055359,-0.108765 0.112152,-0.215759 0.15625,-0.34375c0.13031,-0.383789 0.21875,-0.844299 0.21875,-1.34375c0,-0.177368 -0.013031,-0.333435 -0.03125,-0.5c-0.016418,-0.15686 -0.031372,-0.293518 -0.0625,-0.4375c-0.183533,-0.866455 -0.625549,-1.46875 -1.125,-1.46875l-31.5625,0z" id="path8519"/>
     <path fill="#c7c7c7" stroke-width="8" stroke-linecap="round" stroke-linejoin="round" stroke-miterlimit="4" id="path8521" d="m458.818573,732.806458c0,-1.331848 -0.536987,-2.412292 -1.202911,-2.412292c-0.665924,0 -1.209351,1.080444 -1.209351,2.412292c0,1.331848 0.543427,2.412231 1.209351,2.412231c0.665924,0 1.202911,-1.080383 1.202911,-2.412231z"/>
     <path fill="#c7c7c7" stroke-width="8" stroke-linecap="round" stroke-linejoin="round" stroke-miterlimit="4" d="m460.363922,727.676636c-1.342285,0.438477 -2.242462,1.87738 -3.101013,2.82135c-0.498474,0.298584 -0.867737,1.215149 -0.867737,2.30365c0,1.102478 0.474609,1.902405 0.887054,2.31488c0.84082,0.84082 1.218903,2.81012 3.081696,2.81012c1.412415,0 2.562531,-2.300171 2.5625,-5.125c0,-2.824829 -1.150116,-5.125061 -2.5625,-5.125z" id="path8523"/>
     <path fill="#c7c7c7" stroke-width="8" stroke-linecap="round" stroke-linejoin="round" stroke-miterlimit="4" id="path8525" d="m457.813263,732.806458c-0.000031,-2.824768 1.138916,-5.116272 2.551331,-5.116272c1.412384,-0.000061 2.564972,2.291504 2.564972,5.116272c0.000031,2.824829 -1.152588,5.116394 -2.564972,5.116394c-1.412415,0 -2.551331,-2.291565 -2.551331,-5.116394z"/>
     <path opacity="0.5" fill="url(#radialGradient15147)" stroke-width="8" stroke-linecap="round" stroke-linejoin="round" stroke-miterlimit="4" id="path8527" d="m462.929565,732.806458c0.000031,-2.824768 -1.138947,-5.116272 -2.551331,-5.116272c-1.412384,-0.000061 -2.564972,2.291504 -2.564972,5.116272c-0.000031,2.824829 1.152588,5.116394 2.564972,5.116394c1.412415,0 2.551331,-2.291565 2.551331,-5.116394z"/>
     <path opacity="0.5" fill="url(#radialGradient15149)" stroke-width="8" stroke-linecap="round" stroke-linejoin="round" stroke-miterlimit="4" d="m462.929565,732.806458c0.000031,-2.824768 -1.138947,-5.116272 -2.551331,-5.116272c-1.412384,-0.000061 -2.564972,2.291504 -2.564972,5.116272c-0.000031,2.824829 1.152588,5.116394 2.564972,5.116394c1.412415,0 2.551331,-2.291565 2.551331,-5.116394z" id="path8529"/>
     <path fill="url(#radialGradient15151)" fill-rule="nonzero" stroke-width="0.1" stroke-linecap="round" stroke-linejoin="round" marker-start="none" marker-mid="none" marker-end="none" stroke-miterlimit="4" stroke-dashoffset="0" d="m426.051422,730.395386l-5.21875,2.40625l0.0625,0.03125l4.673859,-0.502502l0.482391,-1.934998z" id="path8531"/>
     <path fill="url(#radialGradient15153)" fill-rule="nonzero" stroke-width="0.1" stroke-linecap="round" stroke-linejoin="round" marker-start="none" marker-mid="none" marker-end="none" stroke-miterlimit="4" stroke-dashoffset="0" id="path8533" d="m426.051422,730.395386l-5.21875,2.40625l0.0625,0.03125l4.673859,-0.502502l0.482391,-1.934998z"/>
     <path fill="url(#radialGradient15155)" fill-rule="nonzero" stroke-width="0.1" stroke-linecap="round" stroke-linejoin="round" marker-start="none" marker-mid="none" marker-end="none" stroke-miterlimit="4" stroke-dashoffset="0" d="m425.582672,732.332886l-4.6875,0.5l5.15625,2.375l-0.46875,-2.875z" id="path8535"/>
    </g>
   </g>
  </g>
 </g>
</svg>